<svg width="15" height="15" viewBox="0 0 15 15" fill="none" xmlns="http://www.w3.org/2000/svg">
<path d="M12.2353 2.20292C12.1636 1.89472 12.0299 1.60432 11.8424 1.3494C11.655 1.09447 11.4176 0.880344 11.1448 0.720033C10.8719 0.559722 10.5694 0.456579 10.2554 0.416876C9.94149 0.377174 9.62276 0.401742 9.31862 0.489086L8.31295 0.776669C8.0582 0.849889 7.82355 0.98038 7.62695 1.15817C7.43035 0.98038 7.19571 0.849889 6.94095 0.776669L5.93529 0.489086C5.63133 0.402197 5.31289 0.377979 4.99929 0.417903C4.68569 0.457826 4.38348 0.561058 4.11099 0.721333C3.8385 0.881608 3.60142 1.09558 3.41414 1.35027C3.22687 1.60495 3.09329 1.89504 3.02154 2.20292C2.35059 2.32499 1.74362 2.67831 1.30615 3.20147C0.868673 3.72462 0.628351 4.38454 0.626953 5.0665L0.626953 9.14984C0.627879 9.9231 0.935468 10.6644 1.48225 11.2112C2.02903 11.758 2.77036 12.0656 3.54362 12.0665H7.04362V13.2332H5.29362C5.13891 13.2332 4.99054 13.2946 4.88114 13.404C4.77174 13.5134 4.71029 13.6618 4.71029 13.8165C4.71029 13.9712 4.77174 14.1196 4.88114 14.229C4.99054 14.3384 5.13891 14.3998 5.29362 14.3998H9.96029C10.115 14.3998 10.2634 14.3384 10.3728 14.229C10.4822 14.1196 10.5436 13.9712 10.5436 13.8165C10.5436 13.6618 10.4822 13.5134 10.3728 13.404C10.2634 13.2946 10.115 13.2332 9.96029 13.2332H8.21029V12.0665H11.7103C12.4836 12.0656 13.2249 11.758 13.7717 11.2112C14.3184 10.6644 14.626 9.9231 14.627 9.14984V5.0665C14.6257 4.38496 14.3858 3.72538 13.9489 3.20228C13.512 2.67918 12.9057 2.3256 12.2353 2.20292ZM8.21029 2.45959C8.21034 2.33289 8.25164 2.20967 8.32794 2.10853C8.40424 2.00739 8.5114 1.93384 8.6332 1.899L9.63945 1.61142C9.8131 1.56175 9.99591 1.55308 10.1735 1.58608C10.3511 1.61909 10.5185 1.69287 10.6627 1.80161C10.8069 1.91036 10.9239 2.0511 11.0045 2.21276C11.085 2.37441 11.127 2.55256 11.127 2.73317V5.03034C11.1261 5.28348 11.0433 5.52953 10.8908 5.73157C10.7383 5.93362 10.5243 6.08076 10.2811 6.15092L8.21029 6.74242V2.45959ZM4.59362 1.79984C4.73754 1.69148 4.90468 1.61806 5.08184 1.58536C5.259 1.55267 5.44133 1.56158 5.61445 1.61142L6.6207 1.899C6.74251 1.93384 6.84966 2.00739 6.92596 2.10853C7.00226 2.20967 7.04356 2.33289 7.04362 2.45959V6.74242L4.97279 6.15092C4.72956 6.08076 4.51565 5.93362 4.36314 5.73157C4.21064 5.52953 4.12776 5.28348 4.12695 5.03034V2.73317C4.12636 2.55195 4.16827 2.37311 4.24931 2.21102C4.33036 2.04892 4.44829 1.9081 4.59362 1.79984ZM13.4603 9.14984C13.4603 9.61397 13.2759 10.0591 12.9477 10.3873C12.6195 10.7155 12.1744 10.8998 11.7103 10.8998H3.54362C3.07949 10.8998 2.63437 10.7155 2.30618 10.3873C1.97799 10.0591 1.79362 9.61397 1.79362 9.14984V5.0665C1.79511 4.70585 1.908 4.35447 2.11684 4.06043C2.32567 3.76639 2.62026 3.54405 2.96029 3.42384V5.03034C2.96172 5.53687 3.12736 6.02928 3.43238 6.43368C3.73739 6.83809 4.16532 7.13268 4.65195 7.27325L6.66504 7.849C7.29417 8.02834 7.9609 8.02834 8.59004 7.849L10.6031 7.27325C11.0895 7.13247 11.5172 6.83779 11.822 6.4334C12.1268 6.02901 12.2923 5.53672 12.2936 5.03034V3.42384C12.6336 3.54405 12.9282 3.76639 13.1371 4.06043C13.3459 4.35447 13.4588 4.70585 13.4603 5.0665V9.14984Z" fill="#414E75"/>
</svg>
