<svg width="14" height="15" viewBox="0 0 14 15" fill="none" xmlns="http://www.w3.org/2000/svg">
<path d="M7.79341 8.21956C7.79434 8.42458 7.74122 8.62621 7.63942 8.80417C7.53761 8.98212 7.39071 9.1301 7.21351 9.23321C7.03631 9.33632 6.83507 9.39092 6.63006 9.3915C6.42504 9.39208 6.22349 9.33862 6.04571 9.23652C5.86793 9.13441 5.7202 8.98726 5.61739 8.80989C5.51458 8.63251 5.46032 8.43118 5.46009 8.22616C5.45986 8.02115 5.51365 7.81969 5.61606 7.64208C5.71846 7.46448 5.86586 7.31699 6.04341 7.21448V4.71956C6.04341 4.56485 6.10487 4.41648 6.21427 4.30708C6.32366 4.19769 6.47203 4.13623 6.62674 4.13623C6.78145 4.13623 6.92983 4.19769 7.03922 4.30708C7.14862 4.41648 7.21008 4.56485 7.21008 4.71956V7.21448C7.3869 7.31616 7.53387 7.46254 7.63626 7.63895C7.73864 7.81536 7.79284 8.01559 7.79341 8.21956ZM11.3284 3.86731C12.1783 4.78244 12.7427 5.9257 12.9524 7.1569C13.162 8.38811 13.0078 9.65373 12.5086 10.7986C12.0095 11.9434 11.1871 12.9177 10.1423 13.6019C9.09745 14.2862 7.87567 14.6507 6.62674 14.6507C5.37782 14.6507 4.15604 14.2862 3.11124 13.6019C2.06643 12.9177 1.24402 11.9434 0.744859 10.7986C0.245697 9.65373 0.0914815 8.38811 0.301125 7.1569C0.510768 5.9257 1.07516 4.78244 1.92508 3.86731L1.53308 3.43156C1.29557 3.51517 1.04518 3.55624 0.793412 3.5529C0.638703 3.5529 0.490329 3.49144 0.380933 3.38204C0.271537 3.27265 0.210079 3.12427 0.210079 2.96956C0.210079 2.81485 0.271537 2.66648 0.380933 2.55708C0.490329 2.44769 0.638703 2.38623 0.793412 2.38623C1.25133 2.38623 1.37675 2.26081 1.37675 1.8029C1.37675 1.64819 1.4382 1.49981 1.5476 1.39042C1.657 1.28102 1.80537 1.21956 1.96008 1.21956C2.11479 1.21956 2.26316 1.28102 2.37256 1.39042C2.48195 1.49981 2.54341 1.64819 2.54341 1.8029C2.54681 2.08676 2.49119 2.36824 2.38008 2.62948L2.79191 3.08681C3.73814 2.37472 4.86409 1.94042 6.04341 1.83265V1.21956C6.04341 1.06485 6.10487 0.916481 6.21427 0.807085C6.32366 0.697689 6.47203 0.63623 6.62674 0.63623C6.78145 0.63623 6.92983 0.697689 7.03922 0.807085C7.14862 0.916481 7.21008 1.06485 7.21008 1.21956V1.83265C8.38934 1.94025 9.51529 2.37435 10.4616 3.08623L10.8734 2.6289C10.7624 2.36784 10.7068 2.08657 10.7101 1.8029C10.7101 1.64819 10.7715 1.49981 10.8809 1.39042C10.9903 1.28102 11.1387 1.21956 11.2934 1.21956C11.4481 1.21956 11.5965 1.28102 11.7059 1.39042C11.8153 1.49981 11.8767 1.64819 11.8767 1.8029C11.8767 2.26081 12.0022 2.38623 12.4601 2.38623C12.6148 2.38623 12.7632 2.44769 12.8726 2.55708C12.982 2.66648 13.0434 2.81485 13.0434 2.96956C13.0434 3.12427 12.982 3.27265 12.8726 3.38204C12.7632 3.49144 12.6148 3.5529 12.4601 3.5529C12.2083 3.55624 11.9579 3.51517 11.7204 3.43156L11.3284 3.86731ZM11.8767 8.21956C11.8767 7.18121 11.5688 6.16618 10.992 5.30282C10.4151 4.43946 9.59514 3.76656 8.63583 3.3692C7.67652 2.97184 6.62092 2.86787 5.60252 3.07044C4.58412 3.27301 3.64866 3.77303 2.91443 4.50725C2.18021 5.24148 1.6802 6.17694 1.47762 7.19534C1.27505 8.21374 1.37902 9.26934 1.77638 10.2287C2.17374 11.188 2.84664 12.0079 3.71 12.5848C4.57336 13.1617 5.58839 13.4696 6.62674 13.4696C8.01866 13.468 9.35312 12.9144 10.3373 11.9302C11.3216 10.9459 11.8752 9.61147 11.8767 8.21956Z" fill="#414E75"/>
</svg>
